<?xml version="1.0" encoding="utf-8"?>
<!-- Generator: Adobe Illustrator 21.1.0, SVG Export Plug-In . SVG Version: 6.00 Build 0)  -->
<svg version="1.1" id="Bells" xmlns="http://www.w3.org/2000/svg" xmlns:xlink="http://www.w3.org/1999/xlink" x="0px" y="0px"
	 viewBox="0 0 300 300" style="enable-background:new 0 0 300 300;" xml:space="preserve">
<style type="text/css">
	.st0{fill:#A0A0A2;}
	.st1{fill:#CD3D64;}
	.st2{opacity:0.7;fill:#ADADAD;}
	.st3{opacity:0.7;}
	.st4{fill:#ADADAD;}
</style>
<g id="Bell_Notification_Hover">
	<path class="st0" d="M198.6,283.2c0,7.9,6.4,14.3,14.3,14.3s14.3-6.4,14.3-14.3h-14.3H198.6z"/>
	<path class="st0" d="M257.9,253.6c-3.2-8.4-3.3-16.6-3.3-28.6c0-2.9-0.2-5.7-0.8-8.4c-14.7-4-25.8-17.2-26.7-32.9
		c-4.5-1.7-9.3-2.7-14.3-2.7c-23.1,0-41.7,19.7-41.7,43.9c0,11.9-0.2,20.1-3.3,28.6c-2.2,5.9-10.2,8.4-10.2,14.8c0,4,3,7.4,6.7,7.7
		l0,0h48.5h48.5l0,0c3.8-0.3,6.7-3.7,6.7-7.7C268.1,261.8,260.1,259.5,257.9,253.6z"/>
	<path class="st0" d="M212.8,173.9c2.5,0,4.8,0.2,7.1,0.6c0-0.2,0-0.3,0-0.6c0-3.9-3.2-7.1-7.1-7.1s-7.1,3.2-7.1,7.1
		c0,0.2,0,0.3,0,0.6C208,174.1,210.4,173.9,212.8,173.9z"/>
	<circle class="st1" cx="263.3" cy="181.6" r="29.1"/>
</g>
<g id="Bell_Hover">
	<path class="st0" d="M48.7,283.2c0,7.9,6.4,14.3,14.3,14.3s14.3-6.4,14.3-14.3H63H48.7z"/>
	<path class="st0" d="M108,253.6c-3.2-8.4-3.3-16.6-3.3-28.6c0-24.3-18.7-43.9-41.7-43.9S21.1,200.7,21.1,225
		c0,11.9-0.2,20.1-3.3,28.6c-2.2,5.9-10.1,8.4-10.1,14.8c0,4,3,7.4,6.7,7.7l0,0h48.5h48.5l0,0c3.8-0.3,6.7-3.7,6.7-7.7
		C118.2,261.8,110.2,259.5,108,253.6z"/>
	<path class="st0" d="M63,173.9c2.5,0,4.8,0.2,7.1,0.6c0-0.2,0-0.3,0-0.6c0-3.9-3.2-7.1-7.1-7.1s-7.1,3.2-7.1,7.1c0,0.2,0,0.3,0,0.6
		C58.2,174.1,60.5,173.9,63,173.9z"/>
</g>
<g id="Bell_Notification_1_">
	<path class="st2" d="M198.6,133.2c0,7.9,6.4,14.3,14.3,14.3s14.3-6.4,14.3-14.3h-14.3H198.6z"/>
	<path class="st2" d="M257.9,103.6c-3.2-8.4-3.3-16.6-3.3-28.6c0-2.9-0.2-5.7-0.8-8.4c-14.7-4-25.8-17.2-26.7-32.9
		c-4.5-1.7-9.3-2.7-14.3-2.7c-23.1,0-41.7,19.7-41.7,43.9c0,11.9-0.2,20.1-3.3,28.6c-2.2,5.9-10.2,8.4-10.2,14.8c0,4,3,7.4,6.7,7.7
		l0,0h48.5h48.5l0,0c3.8-0.3,6.7-3.7,6.7-7.7C268.1,111.8,260.1,109.5,257.9,103.6z"/>
	<path class="st2" d="M212.8,23.9c2.5,0,4.8,0.2,7.1,0.6c0-0.2,0-0.3,0-0.6c0-3.9-3.2-7.1-7.1-7.1c-3.9,0-7.1,3.2-7.1,7.1
		c0,0.2,0,0.3,0,0.6C208,24.1,210.4,23.9,212.8,23.9z"/>
	<circle class="st1" cx="263.3" cy="31.6" r="29.1"/>
</g>
<g id="Bell_2_" class="st3">
	<path class="st4" d="M48.7,133.2c0,7.9,6.4,14.3,14.3,14.3s14.3-6.4,14.3-14.3H63H48.7z"/>
	<path class="st4" d="M108,103.6c-3.2-8.4-3.3-16.6-3.3-28.6c0-24.3-18.7-43.9-41.7-43.9S21.1,50.7,21.1,75
		c0,11.9-0.2,20.1-3.3,28.6c-2.2,5.9-10.1,8.4-10.1,14.8c0,4,3,7.4,6.7,7.7l0,0h48.5h48.5l0,0c3.8-0.3,6.7-3.7,6.7-7.7
		C118.2,111.8,110.2,109.5,108,103.6z"/>
	<path class="st4" d="M63,23.9c2.5,0,4.8,0.2,7.1,0.6c0-0.2,0-0.3,0-0.6c0-3.9-3.2-7.1-7.1-7.1c-3.9,0-7.1,3.2-7.1,7.1
		c0,0.2,0,0.3,0,0.6C58.2,24.1,60.5,23.9,63,23.9z"/>
</g>
</svg>
