<?xml version="1.0" encoding="utf-8"?>
<!-- Generator: Adobe Illustrator 21.1.0, SVG Export Plug-In . SVG Version: 6.00 Build 0)  -->
<svg version="1.1" id="Eyes" xmlns="http://www.w3.org/2000/svg" xmlns:xlink="http://www.w3.org/1999/xlink" x="0px" y="0px"
	 viewBox="0 0 300 300" style="enable-background:new 0 0 300 300;" xml:space="preserve">
<style type="text/css">
	.st0{fill:#A0A0A2;}
	.st1{fill:#FFFFFF;}
	.st2{opacity:0.7;}
	.st3{fill:#ADADAD;}
</style>
<g id="Eye_Crossed_Hover">
	<path class="st0" d="M225,181.5c-36.4,0-63.6,31.9-70.7,41.1c-1.1,1.4-1.1,3.4,0,4.9c7.1,9.2,34.3,41.1,70.7,41.1
		s63.6-31.9,70.7-41.1c1.1-1.4,1.1-3.4,0-4.9C288.6,213.4,261.4,181.5,225,181.5z"/>
	<circle class="st1" cx="225" cy="225" r="36.2"/>
	<circle class="st0" cx="225" cy="225" r="17.4"/>
	<g id="Bar">
		
			<rect x="221.5" y="162" transform="matrix(0.8291 -0.5591 0.5591 0.8291 -86.0886 165.3772)" class="st1" width="12" height="123"/>
		
			<rect x="216.5" y="165" transform="matrix(0.8291 -0.5591 0.5591 0.8291 -88.6204 163.0944)" class="st0" width="12" height="123"/>
	</g>
</g>
<g id="Eye_Open_Hover">
	<path class="st0" d="M75,181.5c-36.4,0-63.6,31.9-70.7,41.1c-1.1,1.4-1.1,3.4,0,4.9c7.1,9.2,34.3,41.1,70.7,41.1
		s63.6-31.9,70.7-41.1c1.1-1.4,1.1-3.4,0-4.9C138.6,213.4,111.4,181.5,75,181.5z"/>
	<circle class="st1" cx="75" cy="225" r="36.2"/>
	<circle class="st0" cx="75" cy="225" r="17.4"/>
</g>
<g id="Eye_Closed" class="st2">
	<path class="st3" d="M225,31.5c-36.4,0-63.6,31.9-70.7,41.1c-1.1,1.4-1.1,3.4,0,4.9c7.1,9.2,34.3,41.1,70.7,41.1
		s63.6-31.9,70.7-41.1c1.1-1.4,1.1-3.4,0-4.9C288.6,63.4,261.4,31.5,225,31.5z"/>
	<circle class="st1" cx="225" cy="75" r="36.2"/>
	<circle class="st3" cx="225" cy="75" r="17.4"/>
	<g id="Bar_1_">
		<rect x="221.5" y="12" transform="matrix(0.8291 -0.5591 0.5591 0.8291 -2.2237 139.7422)" class="st1" width="12" height="123"/>
		<rect x="216.5" y="15" transform="matrix(0.8291 -0.5591 0.5591 0.8291 -4.7555 137.4594)" class="st3" width="12" height="123"/>
	</g>
</g>
<g id="Eye_Open" class="st2">
	<path class="st3" d="M75,31.5c-36.4,0-63.6,31.9-70.7,41.1c-1.1,1.4-1.1,3.4,0,4.9c7.1,9.2,34.3,41.1,70.7,41.1
		s63.6-31.9,70.7-41.1c1.1-1.4,1.1-3.4,0-4.9C138.6,63.4,111.4,31.5,75,31.5z"/>
	<circle class="st1" cx="75" cy="75" r="36.2"/>
	<circle class="st3" cx="75" cy="75" r="17.4"/>
</g>
</svg>
