<?xml version="1.0" encoding="utf-8"?>
<!-- Generator: Adobe Illustrator 21.1.0, SVG Export Plug-In . SVG Version: 6.00 Build 0)  -->
<svg version="1.1" id="Plus" xmlns="http://www.w3.org/2000/svg" xmlns:xlink="http://www.w3.org/1999/xlink" x="0px" y="0px"
	 viewBox="0 0 150 150" style="enable-background:new 0 0 150 150;" xml:space="preserve">
<style type="text/css">
	.st0{fill:#FFFFFF;}
</style>
<path id="Plus_1_" class="st0" d="M135.2,62.5H87.6V14.9c0-6.8-5.6-12.4-12.4-12.4H75c-6.8,0-12.4,5.6-12.4,12.4v47.6H14.9
	c-6.8,0-12.4,5.6-12.4,12.4v0.1c0,6.8,5.6,12.4,12.4,12.4h47.6v47.6c0,6.8,5.6,12.4,12.4,12.4H75c6.8,0,12.4-5.6,12.4-12.4V87.6
	h47.6c6.8,0,12.4-5.6,12.4-12.4v-0.1C147.6,68.1,142,62.5,135.2,62.5z"/>
</svg>
