<?xml version="1.0" encoding="utf-8"?>
<!-- Generator: Adobe Illustrator 21.1.0, SVG Export Plug-In . SVG Version: 6.00 Build 0)  -->
<svg version="1.1" id="Layer_1" xmlns="http://www.w3.org/2000/svg" xmlns:xlink="http://www.w3.org/1999/xlink" x="0px" y="0px"
	 viewBox="0 0 150 150" style="enable-background:new 0 0 150 150;" xml:space="preserve">
<style type="text/css">
	.st0{fill:#CD3D64;}
	.st1{fill:#6D1C32;}
</style>
<path class="st0" d="M16,20l13.1,114.5c0,7.2,5.9,13,13,13h65.8c7.1,0,13-5.9,13-13l13-114.5H16z"/>
<g>
	<path class="st1" d="M109.3,43.1c0.6,7.1,0.7,14.3,0.2,21.4c-0.4,7.1-1.2,14.1-2.1,21.1s-2.3,13.9-3.9,20.8
		c-1.6,7-3.7,13.8-6.3,20.5H97c-0.6-7.1-0.7-14.3-0.2-21.4c0.4-7.1,1-14.1,2.1-21.1s2.3-13.9,3.9-20.8c1.6-7,3.7-13.8,6.3-20.5
		L109.3,43.1z"/>
	<path class="st1" d="M75.1,42.5c1.7,7,2.7,14.1,3.3,21.2c0.6,7.1,0.9,14.2,0.9,21.2s-0.3,14.2-0.8,21.2c-0.5,7.1-1.7,14.3-3.3,21.2
		h-0.2c-1.7-7-2.7-14.1-3.3-21.2c-0.6-7.1-0.9-14.2-0.8-21.2c0.1-7,0.3-14.2,0.9-21.2C72.3,56.6,73.5,49.4,75.1,42.5L75.1,42.5z"/>
	<path class="st1" d="M52.7,126.9c-2.6-6.7-4.7-13.5-6.3-20.5c-1.6-6.9-2.9-13.8-3.9-20.8s-1.8-14-2.1-21.1
		C40,57.4,40,50.2,40.6,43.1h0.2c2.6,6.7,4.7,13.5,6.3,20.5c1.6,6.9,2.8,13.8,3.9,20.8s1.7,14,2.1,21.1c0.4,7.1,0.4,14.3-0.2,21.4
		L52.7,126.9z"/>
</g>
<path class="st1" d="M63.8,2.5H86c2,0,3.7,1.6,3.7,3.5v5.5c0,1.9-1.7,3.5-3.7,3.5H63.8c-2,0-3.7-1.6-3.7-3.5V6
	C60.2,4.1,61.8,2.5,63.8,2.5z"/>
<path class="st1" d="M14,8.8h121.9c2.2,0,4,1.7,4,3.8v13.8c0,2.1-1.8,3.8-4,3.8H14c-2.2,0-3.9-1.7-3.9-3.8V12.5
	C10,10.4,11.8,8.8,14,8.8z"/>
</svg>
