<?xml version="1.0" encoding="utf-8"?>
<!-- Generator: Adobe Illustrator 21.1.0, SVG Export Plug-In . SVG Version: 6.00 Build 0)  -->
<svg version="1.1" id="alsacian-flag" xmlns="http://www.w3.org/2000/svg" xmlns:xlink="http://www.w3.org/1999/xlink" x="0px"
	 y="0px" viewBox="0 0 150 150" style="enable-background:new 0 0 150 150;" xml:space="preserve">
<style type="text/css">
	.st0{fill:#F33431;}
	.st1{fill:#FFFFFF;}
</style>
<path id="red" class="st0" d="M75,0c41.4,0,75,33.6,75,75c0,11.1-2.5,22.1-7.3,32.2c-11.2,5.6-30.1,22.8-35.2,35.4
	c-37.3,18-82.1,2.3-100.1-35c-9.9-20.5-9.9-44.4-0.1-65c13-6.5,28.5-23.1,35.4-35.3C52.8,2.5,63.9,0,75,0z"/>
<path id="white" class="st1" d="M22,22c-6,6-11,13-14.7,20.7l47.9,47.9l52.1,52.1c15.5-7.4,28-19.9,35.4-35.3L92.3,57L42.7,7.3
	C35,11,28,16,22,22z"/>
</svg>
