<?xml version="1.0" encoding="utf-8"?>
<!-- Generator: Adobe Illustrator 21.1.0, SVG Export Plug-In . SVG Version: 6.00 Build 0)  -->
<svg version="1.1" id="german-flag" xmlns="http://www.w3.org/2000/svg" xmlns:xlink="http://www.w3.org/1999/xlink" x="0px"
	 y="0px" viewBox="0 0 150 150" style="enable-background:new 0 0 150 150;" xml:space="preserve">
<style type="text/css">
	.st0{fill:#FADF0E;}
	.st1{fill:#232323;}
	.st2{fill:#FA2F2F;}
</style>
<path id="yellow" class="st0" d="M4.3,100c10.3,29.1,38.1,50,70.7,50c32.7,0,60.4-20.9,70.7-50C98.6,81.4,51.4,81.4,4.3,100z"/>
<path id="black" class="st1" d="M75,0C42.3,0,14.6,20.9,4.3,50c41.2,28.1,88.8,26.2,141.4,0C135.4,20.9,107.7,0,75,0z"/>
<path id="red" class="st2" d="M4.3,50C1.5,57.8,0,66.2,0,75s1.5,17.2,4.3,25h141.4c2.8-7.8,4.3-16.2,4.3-25s-1.5-17.2-4.3-25H4.3z"
	/>
</svg>
