<?xml version="1.0" encoding="utf-8"?>
<!-- Generator: Adobe Illustrator 21.1.0, SVG Export Plug-In . SVG Version: 6.00 Build 0)  -->
<svg version="1.1" id="english-flag" xmlns="http://www.w3.org/2000/svg" xmlns:xlink="http://www.w3.org/1999/xlink" x="0px"
	 y="0px" viewBox="0 0 150 150" style="enable-background:new 0 0 150 150;" xml:space="preserve">
<style type="text/css">
	.st0{fill:#FFFFFF;}
	.st1{fill:#032EA9;}
	.st2{fill:#FA2F2F;}
</style>
<path id="white" class="st0" d="M150,75c0,17.5-6,33.6-16,46.3l-33.9,24.4c-7.8,2.8-16.3,4.3-25.1,4.3c-9,0-17.6-1.6-25.6-4.5
	L16,121.3C6,108.6,0,92.5,0,75c0-17.5,6-33.6,16-46.3L49.4,4.5C57.4,1.6,66,0,75,0c8.9,0,17.3,1.5,25.2,4.4L134,28.7
	C144,41.4,150,57.5,150,75z"/>
<path id="blue" class="st1" d="M100.2,45.5V4.4c13.5,4.8,25.1,13.3,33.8,24.4L100.2,45.5z M49.4,45.3V4.5
	C36.1,9.3,24.6,17.8,16,28.7L49.4,45.3z M100.1,104.5v41.2c13.5-4.8,25.2-13.3,33.9-24.4L100.1,104.5z M16,121.3
	c8.6,10.9,20.1,19.4,33.4,24.2v-40.8L16,121.3z"/>
<path id="red" class="st2" d="M145.7,100.1h-20.2l16.7,8.3C143.5,105.7,144.6,102.9,145.7,100.1z M12.9,116.9l33.9-16.8H24.1
	l-16.3,8.1C9.3,111.2,11,114.1,12.9,116.9z M142.1,41.6c-1.5-3-3.2-5.9-5.1-8.7l-34.2,17h22.7L142.1,41.6z M4.3,49.8h19.8L7.8,41.7
	C6.5,44.3,5.3,47.1,4.3,49.8z M150,75c0-5.2-0.5-10.2-1.5-15.1H90V1.5C85.1,0.5,80.1,0,75,0c-5.3,0-10.4,0.6-15.4,1.6v58.3H1.5
	C0.5,64.8,0,69.8,0,75s0.5,10.1,1.5,15h58.1v58.3c5,1,10.1,1.6,15.4,1.6c5.1,0,10.1-0.5,15-1.5V90h58.5C149.5,85.1,150,80.1,150,75z
	"/>
</svg>
