<?xml version="1.0" encoding="utf-8"?>
<!-- Generator: Adobe Illustrator 21.1.0, SVG Export Plug-In . SVG Version: 6.00 Build 0)  -->
<svg version="1.1" id="us-flag" xmlns="http://www.w3.org/2000/svg" xmlns:xlink="http://www.w3.org/1999/xlink" x="0px" y="0px"
	 viewBox="0 0 150 150" style="enable-background:new 0 0 150 150;" xml:space="preserve">
<style type="text/css">
	.st0{fill:#CE1535;}
	.st1{fill:#FFFFFF;}
	.st2{fill:#3C3B6E;}
</style>
<path id="red-stripes" class="st0" d="M150,75c0,5.1-0.5,10.2-1.5,15l-13.6,30.1C121.2,138.3,99.5,150,75,150
	c-24.5,0-46.3-11.8-60-30L86.8,0.9C106.5,4,123.6,14.8,135,30l13.5,30.1C149.5,64.9,150,69.9,150,75z"/>
<path id="white-stripes" class="st1" d="M1.5,90h147c-2.2,11.1-6.9,21.3-13.5,30H15C8.4,111.3,3.8,101.1,1.5,90z M135,30H75v30h73.5
	C146.2,48.9,141.6,38.7,135,30z"/>
<path id="stars-background" class="st2" d="M86.8,90V0.9C83,0.3,79,0,75,0C33.6,0,0,33.6,0,75c0,5.1,0.5,10.2,1.5,15H86.8z"/>
<path id="stars" class="st1" d="M23.4,20.6h1l-3.8,2.8C21.5,22.4,22.4,21.5,23.4,20.6z M19.9,34.4l-2.4-7.6c-1,1.2-2,2.4-2.9,3.7
	L19.9,34.4z M24.4,63.6l-7.2,5l2.7,8.5l-7.2-5l-7.2,5l2.7-8.5l-7.2-5h9l2.7-8.5l2.7,8.5H24.4z M45.1,12.9L43.3,7
	c-1.2,0.6-2.4,1.2-3.6,1.8L45.1,12.9z M49.6,42.1l-7.2,5.3l2.7,8.2l-7.2-5l-7.2,5l2.7-8.2l-7.2-5.3h9l2.7-8.5l2.7,8.5H49.6z
	 M65.8,20.6h9l-7.2,5.3l2.7,8.5l-7.2-5.3L56,34.4l2.7-8.5l-7.2-5.3h9l2.7-8.5L65.8,20.6z M74.9,63.6l-7.2,5l2.7,8.5l-7.2-5l-7.2,5
	l2.7-8.5l-7.2-5h9l2.7-8.5l2.7,8.5H74.9z"/>
</svg>
