<?xml version="1.0" encoding="utf-8"?>
<!-- Generator: Adobe Illustrator 21.1.0, SVG Export Plug-In . SVG Version: 6.00 Build 0)  -->
<svg version="1.1" id="Layer_1" xmlns="http://www.w3.org/2000/svg" xmlns:xlink="http://www.w3.org/1999/xlink" x="0px" y="0px"
	 viewBox="0 0 150 150" style="enable-background:new 0 0 150 150;" xml:space="preserve">
<style type="text/css">
	.st0{fill:#24292e;}
	.st1{fill:#026fe3;}
</style>
<path class="st0" d="M57.6,112.57c-2.76-3.92-5.54-9.49-3-13.72c1.4-2.44,3.65-3.85,6.66-5.15c-2.46,0.07-5,0.1-7.65,0.1
	c-18.92,0-34.26-1.8-34.26-4v20.15c0,2.23,15.34,4,34.26,4c1.673,0,3.313,0,4.92,0L57.6,112.57z"/>
<path class="st0" d="M19.36,84.13c0,2.23,15.34,4,34.26,4c8.42,0,16.12-0.36,22.09-1l0.44-0.23c5-2.72,8.16-6.56,11.73-11V64
	c0,2.23-15.34,4-34.26,4s-34.26-1.8-34.26-4L19.36,84.13z"/>
<ellipse class="st0" cx="53.62" cy="58.34" rx="34.26" ry="4.03"/>
<path class="st0" d="M28.73,49.89c8.264-0.867,16.57-1.274,24.88-1.22c8.313-0.055,16.622,0.353,24.89,1.22
	c2.762,0.283,5.499,0.767,8.19,1.45c4.53,1.26,6.82,3.62,6.82,7v10.93c1.654-1.811,3.453-3.483,5.38-5
	c3.718-2.824,8.251-4.368,12.92-4.4h0.91l7.07-12V15.51c-0.006-2.378-1.932-4.304-4.31-4.31H6.81
	c-2.378,0.005-4.305,1.932-4.31,4.31v80.2c0.016,2.37,1.94,4.285,4.31,4.29h6.91V58.34c0-3.39,2.3-5.75,6.82-7
	C23.231,50.657,25.968,50.173,28.73,49.89z M9.4,31.89c-0.948-0.005-1.715-0.772-1.72-1.72V18.1c0-0.952,0.768-1.724,1.72-1.73
	h103.49c0.948,0.005,1.715,0.772,1.72,1.72v12.08c-0.005,0.948-0.772,1.715-1.72,1.72H9.4z"/>
<circle class="st0" cx="91.33" cy="24.13" r="3.88"/>
<circle class="st0" cx="105.13" cy="24.13" r="3.88"/>
<circle class="st0" cx="77.53" cy="24.13" r="3.88"/>
<path id="Mop" class="st1" d="M76,109l-7.24,7c4.424,4.047,9.241,7.642,14.38,10.73l13.15-14.46l-4.42,19.36
	c5.224,2.74,10.761,4.836,16.49,6.24l0.82-11.82l5.64,12.71c3.25,0.09,5.1-0.53,5.49-1.2c1.62-2.75-0.8-9.12-0.9-21.54
	s7.14-20.51,8.88-31.84c0.702-4.704-0.837-9.466-4.16-12.87l22.74-38.59c1.345-2.278,0.588-5.215-1.69-6.56
	c-2.278-1.345-5.215-0.588-6.56,1.69l0,0l-22.78,38.64c-4.585-1.258-9.495-0.3-13.27,2.59C93.5,76.09,89.93,86.34,79,92.27
	s-17.66,6.89-19.28,9.65c-0.47,0.8,0.12,3.42,2.78,7.19L76,109z"/>
</svg>
