<?xml version="1.0" encoding="utf-8"?>
<!-- Generator: Adobe Illustrator 21.1.0, SVG Export Plug-In . SVG Version: 6.00 Build 0)  -->
<svg version="1.1" id="Categories" xmlns="http://www.w3.org/2000/svg" xmlns:xlink="http://www.w3.org/1999/xlink" x="0px" y="0px"
	 viewBox="0 0 150 150" style="enable-background:new 0 0 150 150;" xml:space="preserve">
<style type="text/css">
	.st0{fill:#24292E;}
	.st1{fill:#026FE3;}
</style>
<path class="st0" d="M57.3,70H17.7C10.7,70,5,64.3,5,57.3V17.7C5,10.7,10.7,5,17.7,5h39.6c7,0,12.7,5.7,12.7,12.7v39.6
	C70,64.3,64.3,70,57.3,70z"/>
<path class="st1" d="M145,57.3V17.7c0-7-5.7-12.7-12.7-12.7H92.7C85.7,5,80,10.7,80,17.7v39.6c0,7,5.7,12.7,12.7,12.7h39.6
	C139.3,70,145,64.3,145,57.3z"/>
<path class="st0" d="M70,132.3V92.7c0-7-5.7-12.7-12.7-12.7H17.7C10.7,80,5,85.7,5,92.7v39.6c0,7,5.7,12.7,12.7,12.7h39.6
	C64.3,145,70,139.3,70,132.3z"/>
<path class="st0" d="M145,132.3V92.7c0-7-5.7-12.7-12.7-12.7H92.7c-7,0-12.7,5.7-12.7,12.7v39.6c0,7,5.7,12.7,12.7,12.7h39.6
	C139.3,145,145,139.3,145,132.3z"/>
</svg>
