<?xml version="1.0" encoding="utf-8"?>
<!-- Generator: Adobe Illustrator 21.1.0, SVG Export Plug-In . SVG Version: 6.00 Build 0)  -->
<svg version="1.1"
	 id="Silhouette" inkscape:version="0.48.4 r9939" sodipodi:docname="person.svg" xmlns:cc="http://creativecommons.org/ns#" xmlns:dc="http://purl.org/dc/elements/1.1/" xmlns:inkscape="http://www.inkscape.org/namespaces/inkscape" xmlns:rdf="http://www.w3.org/1999/02/22-rdf-syntax-ns#" xmlns:sodipodi="http://sodipodi.sourceforge.net/DTD/sodipodi-0.dtd" xmlns:svg="http://www.w3.org/2000/svg"
	 xmlns="http://www.w3.org/2000/svg" xmlns:xlink="http://www.w3.org/1999/xlink" x="0px" y="0px" viewBox="0 0 150 150"
	 style="enable-background:new 0 0 150 150;" xml:space="preserve">
<style type="text/css">
	.st0{fill:#D40C00;}
	.st1{fill:#24292E;}
</style>
<path id="Arrow" class="st0" d="M119.7,133.6l17.9-13.4c0.6-0.4,1.1-1.1,1.1-2s-0.4-1.7-1.1-2.2l-17.9-13.3c-1.1-0.7-2.2-1-3.3-0.4
	c-1.1,0.6-1.9,1.4-1.9,2.5v6.3H93.2c-1.9,0-3.1,1.3-3.1,2.8v4.2v4.2c0,1.7,1.4,2.8,3.1,2.8h21.1v6.3c0,1.1,0.6,2,1.9,2.5
	C117.4,134.6,118.6,134.3,119.7,133.6z"/>
<path id="Torso" class="st1" d="M93.2,130.1c-4.6,0-8.1-3.4-8.1-7.8v-4.2v-4.2c0-4.4,3.6-7.8,8.1-7.8h16.2v-1.3c0-2.9,1.7-5.5,4.6-7
	c1.1-0.6,2.3-0.9,3.5-0.9c1.6,0,3.3,0.5,4.8,1.5l0.1,0.1l0.1,0.1l7.3,5.4c-4.5-11-13.7-19.8-38.8-29.3c0,0-10.3,6.7-16.1,6.7
	c-5.8,0-16.1-6.7-16.1-6.7c-38,14.4-39.9,27-43.4,48.5c0,0,18.1,9.2,59.5,9.2c13.8,0,25-1,33.9-2.4H93.2V130.1z"/>
<path id="Head" inkscape:connector-curvature="0" sodipodi:nodetypes="ccscsccc" class="st1" d="M75.7,73c13.1-2.1,19.8-7.5,22.7-33
	c0.7-12,1.3-18.8-1.5-24.6C92.6,6.1,83.7,2.5,75.1,2.5S57.4,6.1,53,15.4C50.2,21.3,50.9,28,51.6,40c3,25.5,9.6,30.9,22.7,33H75.7z"
	/>
</svg>
