<?xml version="1.0" encoding="utf-8"?>
<!-- Generator: Adobe Illustrator 21.1.0, SVG Export Plug-In . SVG Version: 6.00 Build 0)  -->
<svg version="1.1"
	 id="Silhouette" inkscape:version="0.48.4 r9939" sodipodi:docname="person.svg" xmlns:cc="http://creativecommons.org/ns#" xmlns:dc="http://purl.org/dc/elements/1.1/" xmlns:inkscape="http://www.inkscape.org/namespaces/inkscape" xmlns:rdf="http://www.w3.org/1999/02/22-rdf-syntax-ns#" xmlns:sodipodi="http://sodipodi.sourceforge.net/DTD/sodipodi-0.dtd" xmlns:svg="http://www.w3.org/2000/svg"
	 xmlns="http://www.w3.org/2000/svg" xmlns:xlink="http://www.w3.org/1999/xlink" x="0px" y="0px" viewBox="0 0 150 150"
	 style="enable-background:new 0 0 150 150;" xml:space="preserve">
<style type="text/css">
	.st0{fill:#24292E;}
</style>
<path id="Torso" inkscape:connector-curvature="0" sodipodi:nodetypes="cczcc" class="st0" d="M134.5,123.3
	c-3.6-21.4-5.4-34.2-43.3-48.5c0,0-10.3,6.7-16.1,6.7c-5.8,0-16.1-6.7-16.1-6.7C21,89.2,19.1,101.8,15.6,123.3
	c0,0,18.1,9.2,59.5,9.2S134.5,123.3,134.5,123.3z"/>
<path id="Head" inkscape:connector-curvature="0" sodipodi:nodetypes="ccscsccc" class="st0" d="M75.7,73c13.1-2.1,19.8-7.5,22.7-33
	c0.7-12,1.3-18.8-1.5-24.6C92.6,6.1,83.7,2.5,75.1,2.5S57.4,6.1,53,15.4C50.2,21.3,50.9,28,51.6,40c3,25.5,9.6,30.9,22.7,33H75.7z"
	/>
</svg>
