<?xml version="1.0" encoding="utf-8"?>
<!-- Generator: Adobe Illustrator 21.1.0, SVG Export Plug-In . SVG Version: 6.00 Build 0)  -->
<svg version="1.1"
	 id="Silhouette" inkscape:version="0.48.4 r9939" sodipodi:docname="person.svg" xmlns:cc="http://creativecommons.org/ns#" xmlns:dc="http://purl.org/dc/elements/1.1/" xmlns:inkscape="http://www.inkscape.org/namespaces/inkscape" xmlns:rdf="http://www.w3.org/1999/02/22-rdf-syntax-ns#" xmlns:sodipodi="http://sodipodi.sourceforge.net/DTD/sodipodi-0.dtd" xmlns:svg="http://www.w3.org/2000/svg"
	 xmlns="http://www.w3.org/2000/svg" xmlns:xlink="http://www.w3.org/1999/xlink" x="0px" y="0px" viewBox="0 0 150 150"
	 style="enable-background:new 0 0 150 150;" xml:space="preserve">
<style type="text/css">
	.st0{fill:#CD3D64;}
	.st1{fill:#24292E;}
</style>
<g id="Cross">
	<path class="st0" d="M98.2,140.1c1.7,1.7,4.5,1.7,6.3,0l9.2-9.2l9.1,9.1c1.7,1.7,4.5,1.7,6.3,0c1.7-1.7,1.7-4.3,0-6.2l-9.1-9.1
		l9.1-9.1c1.7-1.7,1.7-4.5,0-6.3c-1.7-1.7-4.5-1.7-6.4-0.1l-9.1,9.1l-9.1-9.1c-1.6-1.6-4.4-1.6-6.3,0.1c-1.7,1.7-1.7,4.5,0,6.3l9,9
		l-9.1,9.1C96.5,135.5,96.5,138.3,98.2,140.1z"/>
</g>
<path id="Torso" class="st1" d="M132.6,119.1c0.4-0.4,0.7-0.7,1-1.1c0.3,1.7,0.6,3.5,0.9,5.3c0,0-2.1,1.1-6.4,2.4l-1-1L132.6,119.1z
	 M94.4,130.4l0.1-0.1l0.1-0.1l5.6-5.6l-5.5-5.5l-0.1-0.1l0-0.1c-3.6-3.8-3.5-9.6,0.1-13.3l0.1-0.1l0.1-0.1c1.8-1.7,4.2-2.6,6.6-2.6
	c2.5,0,4.8,0.9,6.5,2.7l5.6,5.6l5.6-5.6l0.2-0.2l0.2-0.1c1.8-1.5,4.1-2.4,6.4-2.4c1.4,0,2.7,0.3,4,0.9
	c-4.5-10.9-13.8-19.7-38.7-29.1c0,0-10.3,6.7-16.1,6.7c-5.8,0-16.1-6.7-16.1-6.7c-38,14.4-39.9,27-43.4,48.5c0,0,18.1,9.2,59.5,9.2
	c6.7,0,12.7-0.2,18.2-0.6C93.6,131.3,93.9,130.8,94.4,130.4z"/>
<path id="Head_1_" inkscape:connector-curvature="0" sodipodi:nodetypes="ccscsccc" class="st1" d="M75.7,73
	c13.1-2.1,19.8-7.5,22.7-33c0.7-12,1.3-18.8-1.5-24.6C92.6,6.1,83.7,2.5,75.1,2.5S57.4,6.1,53,15.4C50.2,21.3,50.9,28,51.6,40
	c3,25.5,9.6,30.9,22.7,33H75.7z"/>
</svg>
