<?xml version="1.0" encoding="utf-8"?>
<!-- Generator: Adobe Illustrator 21.1.0, SVG Export Plug-In . SVG Version: 6.00 Build 0)  -->
<svg version="1.1"
	 id="Silhouette" inkscape:version="0.48.4 r9939" sodipodi:docname="person.svg" xmlns:cc="http://creativecommons.org/ns#" xmlns:dc="http://purl.org/dc/elements/1.1/" xmlns:inkscape="http://www.inkscape.org/namespaces/inkscape" xmlns:rdf="http://www.w3.org/1999/02/22-rdf-syntax-ns#" xmlns:sodipodi="http://sodipodi.sourceforge.net/DTD/sodipodi-0.dtd" xmlns:svg="http://www.w3.org/2000/svg"
	 xmlns="http://www.w3.org/2000/svg" xmlns:xlink="http://www.w3.org/1999/xlink" x="0px" y="0px" viewBox="0 0 150 150"
	 style="enable-background:new 0 0 150 150;" xml:space="preserve">
<style type="text/css">
	.st0{fill:#18A600;}
	.st1{fill:#24292E;}
</style>
<g id="Cross_1_">
	<path class="st0" d="M113.8,147.5c2.5,0,4.4-2,4.4-4.5v-13.1h12.7c2.5,0,4.4-2,4.4-4.5s-1.8-4.4-4.3-4.4h-12.7v-12.9
		c0-2.5-2-4.5-4.4-4.5s-4.4,2-4.5,4.5V121H96.7c-2.3,0-4.3,2-4.3,4.5s2,4.5,4.4,4.5h12.6v12.9C109.4,145.5,111.4,147.5,113.8,147.5z
		"/>
</g>
<path id="Torso" class="st1" d="M87.4,125.5c0-5.2,4.2-9.5,9.3-9.5h7.7v-7.9V108l0-0.1c0.2-5.2,4.4-9.3,9.5-9.3
	c5.2,0,9.4,4.3,9.4,9.5v7.9h7.7c0.8,0,1.5,0.1,2.3,0.3C130,99,124.8,87.5,91.2,74.8c0,0-10.3,6.7-16.1,6.7c-5.8,0-16.1-6.7-16.1-6.7
	c-38,14.4-39.9,27-43.4,48.5c0,0,18.1,9.2,59.5,9.2c5.4,0,10.3-0.2,14.9-0.4C88.4,130.4,87.4,128.1,87.4,125.5z"/>
<path id="Head_1_" inkscape:connector-curvature="0" sodipodi:nodetypes="ccscsccc" class="st1" d="M75.7,73
	c13.1-2.1,19.8-7.5,22.7-33c0.7-12,1.3-18.8-1.5-24.6C92.6,6.1,83.7,2.5,75.1,2.5S57.4,6.1,53,15.4C50.2,21.3,50.9,28,51.6,40
	c3,25.5,9.6,30.9,22.7,33H75.7z"/>
</svg>
