<?xml version="1.0" encoding="utf-8"?>
<!-- Generator: Adobe Illustrator 21.1.0, SVG Export Plug-In . SVG Version: 6.00 Build 0)  -->
<svg version="1.1"
	 id="Silhouette" inkscape:version="0.48.4 r9939" sodipodi:docname="person.svg" xmlns:cc="http://creativecommons.org/ns#" xmlns:dc="http://purl.org/dc/elements/1.1/" xmlns:inkscape="http://www.inkscape.org/namespaces/inkscape" xmlns:rdf="http://www.w3.org/1999/02/22-rdf-syntax-ns#" xmlns:sodipodi="http://sodipodi.sourceforge.net/DTD/sodipodi-0.dtd" xmlns:svg="http://www.w3.org/2000/svg"
	 xmlns="http://www.w3.org/2000/svg" xmlns:xlink="http://www.w3.org/1999/xlink" x="0px" y="0px" viewBox="0 0 150 150"
	 style="enable-background:new 0 0 150 150;" xml:space="preserve">
<style type="text/css">
	.st0{fill:#18A600;}
	.st1{fill:#24292E;}
</style>
<path id="Cross" class="st0" d="M113.8,147.5c2.5,0,4.4-2,4.4-4.5v-13.1h12.7c2.5,0,4.4-2,4.4-4.5c0-2.5-1.8-4.4-4.3-4.4h-12.7
	v-12.9c0-2.5-2-4.5-4.4-4.5s-4.4,2-4.5,4.5v12.9H96.7c-2.3,0-4.3,2-4.3,4.5c0,2.5,2,4.5,4.4,4.5h12.6v12.9
	C109.4,145.5,111.4,147.5,113.8,147.5z"/>
<path id="Torso" class="st1" d="M87.4,125.6c0-5.3,4.2-9.5,9.3-9.5h7.7v-7.8v-0.1V108c0.3-5.2,4.4-9.3,9.5-9.3
	c5.2,0,9.4,4.3,9.4,9.5v7.8h7.7c0.7,0,1.3,0.1,2,0.2c-3.2-17.2-8.6-28.6-41.6-41.3c0,0-10.2,6.7-16,6.7s-16-6.7-16-6.7
	C22,89.4,20.2,102.1,16.6,123.6c0,0,17.9,9.3,58.8,9.3c5.3,0,10.2-0.2,14.7-0.4C88.6,130.8,87.4,128.3,87.4,125.6z"/>
<path id="Head" inkscape:connector-curvature="0" sodipodi:nodetypes="ccscsccc" class="st1" d="M76.3,73.3
	c13-2.1,19.6-7.5,22.5-33.2c0.7-12.1,1.3-18.8-1.4-24.7C92.9,6,84.1,2.5,75.7,2.5S58.2,6,53.8,15.4C51,21.3,51.7,28,52.4,40.1
	c3,25.7,9.5,31.1,22.5,33.2H76.3z"/>
</svg>
