<?xml version="1.0" encoding="utf-8"?>
<!-- Generator: Adobe Illustrator 21.1.0, SVG Export Plug-In . SVG Version: 6.00 Build 0)  -->
<svg version="1.1" id="Bell" xmlns="http://www.w3.org/2000/svg" xmlns:xlink="http://www.w3.org/1999/xlink" x="0px" y="0px"
	 viewBox="0 0 150 150" style="enable-background:new 0 0 150 150;" xml:space="preserve">
<style type="text/css">
	.st0{opacity:0.3;fill:#C1DBF6;}
	.st1{fill:#CD3D64;}
	.st2{fill:#CCCCCC;}
</style>
<circle id="Background" class="st0" cx="75" cy="75" r="67.3"/>
<g id="Bell_1_">
	<circle class="st1" cx="113.3" cy="31.6" r="29.1"/>
	<path class="st2" d="M48.6,133.2c0,7.9,6.4,14.3,14.3,14.3s14.3-6.4,14.3-14.3H62.9H48.6z M107.9,103.6c-3.2-8.4-3.3-16.6-3.3-28.6
		c0-2.9-0.2-5.7-0.8-8.4c-14.7-4-25.8-17.2-26.7-32.9C72.6,32,67.8,31,62.8,31c-23.1,0-41.7,19.7-41.7,43.9
		c0,11.9-0.2,20.1-3.3,28.6c-2.2,5.9-10.2,8.4-10.2,14.8c0,4,3,7.4,6.7,7.7l0,0h48.5h48.5l0,0c3.8-0.3,6.7-3.7,6.7-7.7
		C118.1,111.8,110.1,109.5,107.9,103.6z M62.8,23.9c2.5,0,4.8,0.2,7.1,0.6c0-0.2,0-0.3,0-0.6c0-3.9-3.2-7.1-7.1-7.1
		s-7.1,3.2-7.1,7.1c0,0.2,0,0.3,0,0.6C58,24.1,60.4,23.9,62.8,23.9z"/>
</g>
</svg>
