<?xml version="1.0" encoding="utf-8"?>
<!-- Generator: Adobe Illustrator 21.1.0, SVG Export Plug-In . SVG Version: 6.00 Build 0)  -->
<svg version="1.1"
	 id="Gear_Wheels" inkscape:version="0.48.4 r9939" sodipodi:docname="options_2.svg" xmlns:cc="http://creativecommons.org/ns#" xmlns:dc="http://purl.org/dc/elements/1.1/" xmlns:inkscape="http://www.inkscape.org/namespaces/inkscape" xmlns:rdf="http://www.w3.org/1999/02/22-rdf-syntax-ns#" xmlns:sodipodi="http://sodipodi.sourceforge.net/DTD/sodipodi-0.dtd" xmlns:svg="http://www.w3.org/2000/svg"
	 xmlns="http://www.w3.org/2000/svg" xmlns:xlink="http://www.w3.org/1999/xlink" x="0px" y="0px" viewBox="0 0 150 150"
	 style="enable-background:new 0 0 150 150;" xml:space="preserve">
<style type="text/css">
	.st0{fill:#24292E;}
	.st1{fill:#026FE3;}
</style>
<path id="wheel.S" inkscape:connector-curvature="0" class="st0" d="M63.9,94.2c-0.2,0-0.4,0-0.8,0c-4.9-0.2-1.6,3.9-6.4,4.8
	s-3.5-3.9-8-1.7c-4.3,2.1,0.6,4.1-3.1,7.1c-3.7,3.1-5.2-1.7-7.8,2.1s2.7,3.3,1.2,7.5c-1.4,4.4-5.4,1-5.6,5.6s4.1,1.5,5.2,6
	c1,4.4-4.1,3.3-1.9,7.5c2.3,4.1,4.3-0.6,7.6,2.9s-1.9,4.8,2.3,7.3s3.5-2.5,8-1.2c4.7,1.4,1,5,6,5.2c4.9,0.2,1.6-3.9,6.4-4.8
	c4.7-1,3.5,3.9,8,1.7c4.3-2.1-0.6-4.1,3.1-7.1c3.7-3.1,5.2,1.7,7.8-2.1c2.7-3.9-2.7-3.3-1.2-7.5c1.4-4.4,5.4-1,5.6-5.6
	s-4.1-1.5-5.2-6c-1-4.4,4.1-3.3,1.9-7.5c-2.3-4.1-4.3,0.6-7.6-2.9c-3.3-3.5,1.9-4.8-2.3-7.3c-4.1-2.5-3.5,2.5-8,1.2
	C64.5,98,67.4,94.6,63.9,94.2L63.9,94.2z M66,107.6c1.9,0.6,3.5,1.4,4.9,2.5c6,4.6,6.8,12.9,2.1,18.6l-0.2,0.2
	c-5.2,5.8-14.2,6.6-20.1,1.7c-6.2-4.8-7-13.3-1.9-18.8C54.6,107.6,60.6,106.1,66,107.6L66,107.6z"/>
<path id="wheel.M" inkscape:connector-curvature="0" class="st1" d="M117.8,55.1c-0.2,0-0.6-0.2-1-0.2c-5.8-0.4-2.1,4.4-7.8,5.4
	s-4.1-4.8-9.3-2.5c-5.4,2.3,0.4,4.8-3.9,8.3c-4.5,3.5-6-2.3-9.5,2.1s3.1,3.9,1,9.1s-6.4,0.8-7,6.4c-0.4,5.4,4.7,1.9,5.8,7.3
	c1,5.4-5.2,3.9-2.7,8.7c2.5,5,5.2-0.4,8.9,3.7c3.7,4.2-2.5,5.6,2.3,8.9c4.7,3.1,4.1-2.9,9.7-1s0.8,6,6.8,6.6
	c5.8,0.4,2.1-4.4,7.8-5.4s4.1,4.8,9.3,2.5c5.4-2.3-0.4-4.8,3.9-8.3c4.5-3.5,6,2.3,9.5-2.1c3.3-4.4-3.1-3.9-1-9.1s6.4-0.8,7-6.4
	c0.4-5.4-4.7-1.9-5.8-7.3c-1-5.4,5.2-3.9,2.7-8.7c-2.5-5-5.2,0.4-8.9-3.7c-3.7-4.2,2.5-5.6-2.3-8.9c-4.7-3.1-4.1,2.9-9.7,1
	C118.4,59.8,122,55.9,117.8,55.1L117.8,55.1z M119.5,71.3c2.1,0.8,4.1,1.7,5.8,3.3c6.8,5.8,7.4,15.6,1.4,22.1l-0.2,0.2
	c-6.4,6.6-17.1,6.9-23.8,1c-7-6-7.4-16-1-22.3C106,70.7,113.3,69.1,119.5,71.3L119.5,71.3z"/>
<path id="wheel.L" inkscape:connector-curvature="0" class="st0" d="M38.7,2.5c-0.4,0-0.8,0-1.2,0.2c-7.6,1.5-1,6.4-7.8,9.7
	c-7,3.3-7-4.6-12.8,0.2s2.5,6-1.6,12s-8.6-0.8-11,6.2S9.7,34.7,9.2,42c-0.4,7.3-7.8,3.5-6.4,10.6c1.6,7.1,6.8,1,10.3,7.3
	s-4.9,6.6,0.2,12s6.4-2.3,12.8,1.5s-0.8,8.1,6.6,10.4s4.1-5,12-4.6c7.8,0.4,3.7,7.3,11.3,6c7.6-1.5,1-6.4,7.8-9.7
	c7-3.3,7,4.6,12.8-0.2s-2.5-6,1.6-12s8.7,0.8,11.1-6.2s-5.4-3.9-4.9-11.2s7.8-3.5,6.4-10.6s-6.8-1-10.3-7.3c-3.5-6.6,4.9-6.6-0.2-12
	s-6.4,2.3-12.8-1.5C61,10.6,68,6.4,60.6,4.1s-4.1,5-12,4.6C41.3,8.1,44.4,2,38.7,2.5L38.7,2.5z M47.5,22.6c2.9,0.2,6,0.8,8.7,2.1
	c11.1,5,16.1,17.3,10.9,27.7l-0.2,0.4c-5.4,10.6-18.9,15.1-30.2,10S20.5,45.1,25.9,34.5C30,26.9,38.7,22.2,47.5,22.6z"/>
</svg>
