<?xml version="1.0" encoding="utf-8"?>
<!-- Generator: Adobe Illustrator 21.1.0, SVG Export Plug-In . SVG Version: 6.00 Build 0)  -->
<svg version="1.1" id="Typewriter" xmlns="http://www.w3.org/2000/svg" xmlns:xlink="http://www.w3.org/1999/xlink" x="0px" y="0px"
	 viewBox="0 0 150 150" style="enable-background:new 0 0 150 150;" xml:space="preserve">
<style type="text/css">
	.st0{fill:#026FE3;}
	.st1{fill:#24292E;}
</style>
<path id="Paper" class="st0" d="M39.3,2.5v76.89h68.11V2.5H39.3z M53.58,13.21h30.76V16H53.58V13.21z M96.42,42.32H50.28v-2.75
	h46.14V42.32z M96.42,33.53H50.28v-2.74h46.14V33.53z M96.42,24.74H50.28V22h46.14V24.74z"/>
<path id="Machine" class="st1" d="M129.38,60.72c0.999-0.005,1.87-0.682,2.12-1.65h10V42.91c3.186-0.911,5.03-4.233,4.119-7.419
	c-0.911-3.186-4.233-5.03-7.419-4.119s-5.03,4.233-4.119,7.419c0.57,1.992,2.127,3.549,4.119,4.119v12.87h-6.67
	c-0.25-0.968-1.121-1.645-2.12-1.65h-14.32v-3.3c0-1.215-0.985-2.2-2.2-2.2H33.81c-1.215,0-2.2,0.985-2.2,2.2l0,0v3.3H21.5v-2.2
	c0-1.215-0.985-2.2-2.2-2.2h0h-3.07c-1.215,0-2.2,0.985-2.2,2.2l0,0v11c0,1.215,0.985,2.2,2.2,2.2l0,0h3.08
	c1.215,0,2.2-0.985,2.2-2.2l0,0v-2.2h10.1v5.49h-1.1c-3.031,0-5.493,2.449-5.51,5.48v7.69l-20.87,56v9.89c0,1.215,0.985,2.2,2.2,2.2
	h134c1.215,0,2.2-0.985,2.2-2.2v-9.89l-20.87-56V71.7c-0.011-3.027-2.463-5.479-5.49-5.49h-1.1v-5.49H129.38z M51.46,97
	c2.121,0,3.84,1.719,3.84,3.84s-1.719,3.84-3.84,3.84s-3.84-1.719-3.84-3.84l0,0C47.62,98.719,49.339,97,51.46,97z M46.67,93.7
	c-2.121,0-3.84-1.719-3.84-3.84s1.719-3.84,3.84-3.84s3.84,1.719,3.84,3.84l0,0c-0.016,2.109-1.731,3.81-3.84,3.81V93.7z
	 M53.5,89.86c0-2.121,1.719-3.84,3.84-3.84s3.84,1.719,3.84,3.84c0,2.121-1.719,3.84-3.84,3.84h0
	C55.219,93.7,53.5,91.981,53.5,89.86c0-0.01,0-0.02,0-0.03V89.86z M57.35,108c2.121,0,3.84,1.719,3.84,3.84s-1.719,3.84-3.84,3.84
	s-3.84-1.719-3.84-3.84l0,0C53.51,109.719,55.229,108,57.35,108z M58.29,100.86c0-2.121,1.719-3.84,3.84-3.84
	c2.121,0,3.84,1.719,3.84,3.84c0,2.121-1.719,3.84-3.84,3.84h0C60.009,104.7,58.29,102.981,58.29,100.86c0-0.016,0-0.033,0-0.05
	L58.29,100.86z M64.17,89.86c-0.017-2.121,1.689-3.853,3.81-3.87c2.121-0.017,3.853,1.689,3.87,3.81
	c0.017,2.121-1.689,3.853-3.81,3.87c-0.013,0-0.027,0-0.04,0c-2.117-0.006-3.83-1.723-3.83-3.84V89.86z M68,108
	c2.121,0,3.84,1.719,3.84,3.84s-1.719,3.84-3.84,3.84s-3.84-1.719-3.84-3.84v0C64.16,109.719,65.879,108,68,108z M68.94,100.86
	c0-2.121,1.719-3.84,3.84-3.84s3.84,1.719,3.84,3.84s-1.719,3.84-3.84,3.84h0c-2.117-0.033-3.808-1.773-3.78-3.89L68.94,100.86z
	 M74.82,89.86c0-2.121,1.719-3.84,3.84-3.84s3.84,1.719,3.84,3.84s-1.719,3.84-3.84,3.84h0c-2.121-0.011-3.831-1.739-3.82-3.86
	c0-0.003,0-0.007,0-0.01L74.82,89.86z M78.69,108c2.121,0,3.84,1.719,3.84,3.84s-1.719,3.84-3.84,3.84s-3.84-1.719-3.84-3.84v0
	C74.85,109.719,76.569,108,78.69,108z M79.63,100.86c0-2.121,1.719-3.84,3.84-3.84s3.84,1.719,3.84,3.84s-1.719,3.84-3.84,3.84h0
	C81.349,104.7,79.63,102.981,79.63,100.86c0-0.016,0-0.033,0-0.05L79.63,100.86z M85.51,89.86c0-2.121,1.719-3.84,3.84-3.84
	s3.84,1.719,3.84,3.84s-1.719,3.84-3.84,3.84h0C87.229,93.7,85.51,91.981,85.51,89.86c0-0.01,0-0.02,0-0.03V89.86z M89.36,108
	c2.121,0,3.84,1.719,3.84,3.84s-1.719,3.84-3.84,3.84s-3.84-1.719-3.84-3.84v0C85.52,109.719,87.239,108,89.36,108z M90.3,100.86
	c0-2.121,1.719-3.84,3.84-3.84s3.84,1.719,3.84,3.84s-1.719,3.84-3.84,3.84h0C92.019,104.7,90.3,102.981,90.3,100.86
	c0-0.016,0-0.033,0-0.05V100.86z M96.18,89.86c-0.017-2.121,1.689-3.853,3.81-3.87c2.121-0.017,3.853,1.689,3.87,3.81
	c0.017,2.121-1.689,3.853-3.81,3.87c-0.017,0-0.033,0-0.05,0c-2.109-0.016-3.81-1.731-3.81-3.84L96.18,89.86z M39.84,89.86
	c-0.011,2.121-1.739,3.831-3.86,3.82c-2.121-0.011-3.831-1.739-3.82-3.86C32.171,87.707,33.887,86,36,86
	c2.121-0.006,3.844,1.709,3.85,3.83c0,0,0,0,0,0L39.84,89.86z M36,115.64c-2.121,0-3.84-1.719-3.84-3.84s1.719-3.84,3.84-3.84
	s3.84,1.719,3.84,3.84l0,0C39.84,113.921,38.121,115.64,36,115.64z M36.94,100.81c0-2.121,1.719-3.84,3.84-3.84
	s3.84,1.719,3.84,3.84c0,2.121-1.719,3.84-3.84,3.84h0c-2.117-0.006-3.83-1.723-3.83-3.84H36.94z M46.67,115.64
	c-2.121,0-3.84-1.719-3.84-3.84s1.719-3.84,3.84-3.84s3.84,1.719,3.84,3.84l0,0C50.51,113.921,48.791,115.64,46.67,115.64z
	 M90.92,129.92H54.68c-2.124,0-3.845-1.721-3.845-3.845s1.721-3.845,3.845-3.845l0,0h36.25c2.124,0,3.845,1.721,3.845,3.845
	s-1.721,3.845-3.845,3.845H90.92z M100.02,115.64c-2.121,0-3.84-1.719-3.84-3.84s1.719-3.84,3.84-3.84s3.84,1.719,3.84,3.84v0
	C103.86,113.921,102.141,115.64,100.02,115.64c-0.007,0-0.013,0-0.02,0H100.02z M100.96,100.81c0-2.121,1.719-3.84,3.84-3.84
	s3.84,1.719,3.84,3.84s-1.719,3.84-3.84,3.84h0c-2.105-0.022-3.8-1.735-3.8-3.84H100.96z M110.69,115.64
	c-2.121,0-3.84-1.719-3.84-3.84s1.719-3.84,3.84-3.84s3.84,1.719,3.84,3.84v0c0,2.117-1.713,3.834-3.83,3.84H110.69z M110.69,93.64
	c-2.121,0-3.84-1.719-3.84-3.84s1.719-3.84,3.84-3.84s3.84,1.719,3.84,3.84v0c0.017,2.121-1.689,3.853-3.81,3.87
	c-0.007,0-0.013,0-0.02,0L110.69,93.64z"/>
</svg>
