<?xml version="1.0" encoding="utf-8"?>
<!-- Generator: Adobe Illustrator 21.1.0, SVG Export Plug-In . SVG Version: 6.00 Build 0)  -->
<svg version="1.1"
	 id="Cloud" inkscape:version="0.48.4 r9939" sodipodi:docname="logo.svg" xmlns:cc="http://creativecommons.org/ns#" xmlns:dc="http://purl.org/dc/elements/1.1/" xmlns:inkscape="http://www.inkscape.org/namespaces/inkscape" xmlns:rdf="http://www.w3.org/1999/02/22-rdf-syntax-ns#" xmlns:sodipodi="http://sodipodi.sourceforge.net/DTD/sodipodi-0.dtd" xmlns:svg="http://www.w3.org/2000/svg"
	 xmlns="http://www.w3.org/2000/svg" xmlns:xlink="http://www.w3.org/1999/xlink" x="0px" y="0px" viewBox="0 0 150 150"
	 style="enable-background:new 0 0 150 150;" xml:space="preserve">
<style type="text/css">
	.st0{fill:#18A600;}
	.st1{fill:#24292E;}
</style>
<path id="Arrow" class="st0" d="M116.4,94.1L103,76.2c-0.4-0.6-1.1-1.1-2-1.1s-1.7,0.4-2.2,1.1L85.5,94.1c-0.7,1.1-1,2.2-0.4,3.3
	c0.6,1.1,1.4,1.9,2.5,1.9h6.3v21.3c0,1.9,1.3,3.1,2.8,3.1h4.2h4.2c1.7,0,2.8-1.4,2.8-3.1V99.5h6.3c1.1,0,2-0.6,2.5-1.9
	C117.4,96.4,117.1,95.2,116.4,94.1z"/>
<path id="Cloud_1_" class="st1" d="M126,41.3c-9.3-4.2-19.5-4.4-28.5-1.5c-3-3.5-6.9-6.3-11.3-8.3c-5-2.1-10-3.1-14.9-3.1
	C62,28.5,53,32.1,46.6,38.5c-13.2-4.4-28.1,1-34.3,12.9c-4,7.5-3.4,16,0.7,22.9c-3.3,2-6,4.7-7.8,7.9c-6.5,11-0.7,24.3,13.1,29.5
	c6.6,2.5,13.9,2.7,20.3,1.1c3.2,2.9,7.8,5.4,13.6,7c12.5,3.5,27,2,36.7-3.2v-12.2h-1.3c-1.7,0-4.8-0.6-6.9-4.5
	c-0.8-1.5-1.8-4.6,0.6-8.4l0.1-0.2l0.1-0.1l13.3-17.9c1.4-2,3.8-3.1,6.2-3.1c2.4,0,4.7,1.2,6.1,3.2l13.3,17.8l0.1,0.2l0.1,0.2
	c1.7,2.7,1.9,5.7,0.6,8.3c-1.3,2.9-3.9,4.7-7,4.7h-1.3v3.8c12.9-1,24.9-8.3,31-20.1l0.4-0.7C152.7,70.1,144.6,49.5,126,41.3z"/>
</svg>
