<?xml version="1.0" encoding="utf-8"?>
<!-- Generator: Adobe Illustrator 21.1.0, SVG Export Plug-In . SVG Version: 6.00 Build 0)  -->
<svg version="1.1" id="Goji" xmlns="http://www.w3.org/2000/svg" xmlns:xlink="http://www.w3.org/1999/xlink" x="0px" y="0px"
	 viewBox="0 0 150 150" style="enable-background:new 0 0 150 150;" xml:space="preserve">
<style type="text/css">
	.st0{fill:#808080;}
	.st1{fill:#969696;}
	.st2{fill:#737373;}
	.st3{fill:#9e9e9e;}
	.st4{fill:#969696;}
	.st5{fill:#a8a8a8;}
</style>
<g id="Leaf">
	<path class="st0" d="M72,13.1c-1.7-0.6-3.5-1-5.3-1l0.1-4.4c0.5,0,4.8,0.2,7.5,1.6L72,13.1z"/>
	<path class="st0" d="M142.2,64.1c7.8-9.4-13.8-40.7-30.3-53.5s-38.6-5.1-42-1s-6,26.5,10.8,38.8S134.4,73.5,142.2,64.1z"/>
	<path class="st1" d="M139.7,60.3c4.7-5.7-14.4-36.7-29.5-48.3S79.4,6.3,77.2,8.6c-4.8,5.2-8.9,24.9,6.3,36.2S135,65.9,139.7,60.3z"
		/>
	<path class="st0" d="M139.8,63.5c-12-17.1-42.4-45-68.4-52.8l0.5-1.5c26.4,7.9,57.2,36.1,69.3,53.4L139.8,63.5z"/>
</g>
<g id="Stems">
	<g>
		<path class="st0" d="M68.5,49.9c0-3.8,0-7.5-0.2-11.3c0-0.9,0-1.9-0.1-2.8L68,32.9c-0.1-1.9-0.2-3.8-0.4-5.7
			c-0.3-3.8-0.6-7.5-1.1-11.3c-0.4-3.8-0.9-7.5-1.5-11.2l-0.2-1.6L68,2.5l0.3,1.6c0.7,3.8,1.3,7.6,1.8,11.4s1,7.6,1.4,11.4
			c0.2,1.9,0.4,3.8,0.5,5.7l0.2,2.9c0.1,1,0.1,1.9,0.2,2.9c0.3,3.8,0.4,7.7,0.4,11.5v2.2h-4.4L68.5,49.9z"/>
		<path class="st1" d="M68.4,52.1h1.5v-1.3c0-3.9,0-7.9-0.2-11.8c0-1,0-2-0.1-3l-0.1-3c-0.1-2-0.2-3.9-0.4-5.9
			c-0.3-3.9-0.7-7.8-1.1-11.7c-0.4-3.9-0.9-7.9-1.5-11.7l-0.1-0.9l-1.6,0.3L65,4.7c0.6,3.7,1.1,7.5,1.5,11.2s0.8,7.5,1.1,11.3
			c0.2,1.9,0.3,3.8,0.4,5.7l0.1,2.8c0.1,0.9,0.1,1.9,0.1,2.8c0.2,3.8,0.2,7.6,0.2,11.3L68.4,52.1z"/>
	</g>
	<g>
		<path class="st0" d="M82.6,39.5c-2.8-5.1-5.1-10.3-7.6-15.4c-1.3-2.5-2.6-5-4.1-7.4s-3-4.8-4.6-7.1l2.3-1.7c1.8,2.3,3.5,4.6,5.1,7
			c1.6,2.4,3.1,4.9,4.5,7.4c2.8,5,5.4,10.1,8.3,14.9L82.6,39.5z"/>
		<path class="st1" d="M76.3,23.5c-1.4-2.6-2.8-5.2-4.3-7.8c-1.4-2.4-2.9-4.7-4.6-6.9l-1.1,0.8c1.6,2.3,3.2,4.6,4.6,7.1
			c1.4,2.4,2.8,4.9,4.1,7.4c2.6,5,4.9,10.2,7.6,15.4l1.4-0.8C81.2,33.6,78.9,28.5,76.3,23.5z"/>
	</g>
	<g>
		<path class="st0" d="M46.5,26.9c0.5-1.2,1-2.3,1.6-3.4c0.6-1,1.3-2,2.1-3c0.7-1,1.5-1.9,2.4-2.7s1.7-1.7,2.6-2.4
			c1.8-1.5,3.7-2.9,5.6-4.2c1-0.7,2-1.3,3-1.8c1-0.6,2-1.1,3.1-1.6l1.6,2c-0.9,0.5-2.3,1.4-3.2,2s-1.8,1.2-2.7,1.9
			c-1.8,1.3-3.4,2.8-5,4.3c-0.8,0.8-1.5,1.6-2.2,2.4c-0.7,0.8-1.3,1.7-1.9,2.5c-0.6,0.9-1.1,1.8-1.6,2.7c-0.4,0.9-0.8,1.9-1.1,2.8
			L46.5,26.9z"/>
		<path class="st1" d="M50.1,23.9c0.8-1.3,1.7-2.5,2.7-3.7c1-1.2,2-2.3,3.1-3.3s2.2-2.1,3.4-3c2.3-1.9,4.8-3.6,7.3-5.2l0.6-0.4
			l-0.1-0.8C66,8,64.8,8.7,63.7,9.3s-2,1.2-3,1.8c-2,1.3-3.8,2.7-5.6,4.2c-0.9,0.8-1.7,1.6-2.6,2.5c-0.8,0.9-1.6,1.8-2.4,2.7
			c-0.7,1-1.4,2-2.1,3c-0.6,1.1-1.2,2.2-1.6,3.4l1.7,0.6C48.7,26.2,49.4,25,50.1,23.9z"/>
	</g>
</g>
<g id="Berry.R">
	<path class="st2" d="M94.1,53.2c4.5,0.7,18.3-2.5,18.2-5.7c-0.1-2.4-3.7-0.5-11.2-2.9L94.1,53.2z"/>
	<path class="st2" d="M91.5,55.1C89.9,59.4,80.5,70,77.8,68.3c-2.1-1.2,1.3-3.5,2.8-11.2L91.5,55.1z"/>
	<path class="st3" d="M123.6,63.5c9.8,17.7,11.8,39.7,0.6,45.9s-28.8-7.2-38.6-24.9s-6.3-27.7,5.8-34.4S113.8,45.9,123.6,63.5z"/>
	<path class="st4" d="M91.4,50.1c-1.3,0.7-2.5,1.5-3.6,2.3c10.5-4.2,19.7-0.5,28.4,15.2s11.2,34.6,3.9,43.1c1.4-0.2,2.8-0.7,4.1-1.4
		c11.2-6.2,9.2-28.2-0.6-45.9S103.5,43.4,91.4,50.1z"/>
	<path class="st5" d="M98.9,67.5c2.7,5.9,2.8,12.9-0.9,14.6s-9-3-11.7-8.8s-1.4-9,2.7-10.8S96.2,61.7,98.9,67.5z"/>
	<path class="st0" d="M99.7,47.8L84.9,56l-4.1-7.4c-2.3-4.1-0.8-9.2,3.3-11.5c0,0,0,0,0,0l0,0c4.1-2.3,9.2-0.8,11.5,3.3c0,0,0,0,0,0
		L99.7,47.8z"/>
	<path class="st1" d="M92.5,39.5c-1.6-3-5.4-4-8.3-2.4l-1,0.5c-3.6,2-4.8,6.4-2.9,10c0,0,0,0,0,0l2.4,4.3l7.4-4.1
		C93,46.2,94.1,42.5,92.5,39.5C92.5,39.5,92.5,39.5,92.5,39.5z"/>
	<path class="st0" d="M95.9,52.2c4.3,1.7,18.8,1.3,19.3-1.9c0.4-2.4-3.6-1.3-10.6-5.2L95.9,52.2z"/>
	<path class="st0" d="M90.7,55c-0.9,4.6-8.7,16.7-11.8,15.4c-2.2-0.9,0.8-3.7,1.1-11.8L90.7,55z"/>
	<path class="st0" d="M105.6,47.4L81.5,60.7c-0.5,0.2-1,0.1-1.3-0.4l0,0c-1.5-2.8-0.5-6.2,2.2-7.8l15.7-8.7c2.8-1.5,6.2-0.5,7.8,2.2
		l0,0C106.2,46.6,106,47.2,105.6,47.4z"/>
	<path class="st1" d="M104.4,44.4c-1.8-1.4-4.2-1.5-6.2-0.5l-15.7,8.7c-2,1.1-3.1,3.3-2.9,5.5L104.4,44.4z"/>
</g>
<g id="Berry.L">
	<path class="st2" d="M42.8,46.2C45.4,50.5,58,60,60.6,57.6c2-1.8-2.2-3.5-5.5-11.6L42.8,46.2z"/>
	<path class="st2" d="M40.4,45.4c-4.7,1.8-20.5,1.4-21.1-2.2c-0.4-2.6,3.9-1.4,11.6-5.7L40.4,45.4z"/>
	<path class="st3" d="M56.3,78.7c-7.4,21.4-24.2,39.5-37.8,34.8S3,84.2,10.4,62.8s18.3-26,33-21S63.7,57.4,56.3,78.7z"/>
	<path class="st4" d="M43.4,41.9c-1.5-0.5-3.1-1-4.6-1.3c11.3,5.6,15.1,16,8.5,35c-6.5,18.9-20.5,35.2-33,35.5
		c1.3,1,2.7,1.9,4.2,2.4c13.5,4.7,30.4-13.4,37.8-34.8S58,46.9,43.4,41.9z"/>
	<path class="st5" d="M34.5,61.2c-2.9,6.6-8.6,12-12.9,10.2s-4.3-9.7-1.4-16.4s6.5-7.9,11-5.9S37.4,54.5,34.5,61.2z"/>
	<path class="st0" d="M51.6,47.1l-17.9-6.2l3.3-9.6c1.6-4.6,6.6-7,11.1-5.4c0,0,0,0,0,0l1.3,0.5c4.6,1.6,7,6.6,5.4,11.1c0,0,0,0,0,0
		L51.6,47.1z"/>
	<path class="st1" d="M53.1,34.8c1.2-3.6-0.7-7.5-4.2-8.7l-1.2-0.4c-4.3-1.5-9,0.8-10.5,5.1L35.4,36l9,3.1
		C47.9,40.3,51.8,38.4,53.1,34.8C53.1,34.8,53.1,34.8,53.1,34.8z"/>
	<path class="st0" d="M44.9,47.5c1.8,4.9,12.8,16.9,16,15c2.3-1.4-1.6-4-3.4-12.9L44.9,47.5z"/>
	<path class="st0" d="M38.6,45.2c-4.5,2.6-20.6,5-21.8,1.5c-0.9-2.6,3.7-2.1,10.8-7.8L38.6,45.2z"/>
	<path class="st0" d="M56.3,51.7L27.2,41.6c-0.6-0.2-0.8-0.8-0.6-1.3l0,0c1.2-3.3,4.8-5.1,8.1-4l19,6.6c3.3,1.2,5.1,4.8,4,8.1l0,0
		C57.4,51.6,56.8,51.9,56.3,51.7C56.3,51.7,56.3,51.7,56.3,51.7z"/>
	<path class="st1" d="M57.9,48.3c-0.3-2.5-1.9-4.6-4.2-5.4l-19-6.6c-2.3-0.8-4.9-0.2-6.7,1.6L57.9,48.3z"/>
</g>
<g id="Berry.M">
	<path class="st2" d="M72.2,70.1c4,3.9,20.3,10.6,22.5,7.2c1.6-2.5-3.4-3.1-9.3-11L72.2,70.1z"/>
	<path class="st2" d="M69,69.8c-3.9,4.1-20,11.2-22.3,7.9c-1.7-2.4,3.3-3.2,8.9-11.2L69,69.8z"/>
	<path class="st3" d="M96.5,99.3c0,24.1-10.6,48.2-25.9,48.2s-25.9-24.1-25.9-48.2s9.4-32.6,25.9-32.6S96.5,75.2,96.5,99.3z"/>
	<path class="st4" d="M70.7,66.7c-1.7,0-3.4,0.1-5.1,0.3c13.3,1.7,20.8,10.8,20.8,32.3c0,21.3-8.3,42.6-20.8,47.2
		c1.6,0.6,3.4,0.9,5.1,0.9c15.2,0,25.9-24.1,25.9-48.2S87.1,66.7,70.7,66.7z"/>
	<path class="st5" d="M68.5,89.2c-0.6,7.7-4.5,15.1-9.4,14.8s-7.7-8.3-7.1-16s3.8-10.2,9-9.8S69,81.6,68.5,89.2z"/>
	<path class="st0" d="M80.7,69.1H60.6V57.7c0-4.8,3.9-8.7,8.7-8.7H72c4.8,0,8.8,3.9,8.8,8.8l0,0L80.7,69.1z"/>
	<path class="st1" d="M78,56.3c0-4-3.3-7.3-7.3-7.3c0,0,0,0,0,0h-1.3c-4.8,0-8.8,3.9-8.8,8.8l0,0v5.9h10.1
		C74.7,63.7,78,60.4,78,56.3C78,56.3,78,56.3,78,56.3z"/>
	<path class="st0" d="M74.2,71.9c3.6,4.3,19.2,12.5,21.7,9.4c1.9-2.3-3.1-3.4-8.2-11.8L74.2,71.9z"/>
	<path class="st0" d="M67,71.9c-3.6,4.3-19.2,12.5-21.7,9.4c-1.9-2.3,3-3.4,8.2-11.8L67,71.9z"/>
	<path class="st0" d="M87.1,72.1H54.2c-0.6,0-1.1-0.5-1.1-1.1c0,0,0,0,0,0v-0.2c0-3.6,3-6.6,6.6-6.6h21.8c3.6,0,6.6,3,6.6,6.6V71
		C88.2,71.6,87.7,72.1,87.1,72.1C87.1,72.1,87.1,72.1,87.1,72.1z"/>
	<path class="st1" d="M87.6,68.2c-1-2.4-3.4-4-6-4H59.7c-2.6,0-5,1.6-6,4H87.6z"/>
</g>
</svg>
