<?xml version="1.0" encoding="utf-8"?>
<!-- Generator: Adobe Illustrator 21.1.0, SVG Export Plug-In . SVG Version: 6.00 Build 0)  -->
<svg version="1.1" id="Map" xmlns="http://www.w3.org/2000/svg" xmlns:xlink="http://www.w3.org/1999/xlink" x="0px" y="0px"
	 viewBox="0 0 600 400" style="enable-background:new 0 0 600 400;" xml:space="preserve">
<style type="text/css">
	.st0{fill:#F3F4F4;}
	.st1{fill:#8ACCAD;}
	.st2{fill:#8ACDEA;}
	.st3{fill:#ECECEC;}
	.st4{fill:#FFFFFF;}
	.st5{fill:#F9DD8C;}
	.st6{fill:#D8607D;}
</style>
<rect id="Background" class="st0" width="600" height="400"/>
<path id="Parks" class="st1" d="M346.5,214.5h-84v-104h84V214.5z M147,110H64v122h83V110z M210,301h-34v23h34V301z M547,52h-72v58
	h72V52z M587,324h-68v45h68V324z"/>
<path id="Buildings" class="st2" d="M210,266h35v35h-35V266z M371,301h-25v22h25V301z M347,52h-40v58h40V52z M547,166h-28v49h28V166
	z M210,232h-34v34h34V232z"/>
<path id="Small_Roads" class="st3" d="M147,203v3h86v-61h28.5v-3H233V0h-3v93H117V0h-3v70H52V51.5h-3V93H0v3h49v14.5h3V96h178v46
	h-53.5v3H230v58H147z M52,73h62v20H52V73z M370.5,135h-23v-3h23V135z M370.5,203h-23v-3h23V203z M347.5,231h23v3h-23V231z
	 M247.5,244h100v3H317v53.5h-3V247h-66.5V244z M232,300.5h3v25h-3V300.5z M370.5,73h-23v-3h23V73z M571,53h-24.5v-3H571V15.5h3V50
	h13.5v3H574v27.5h-3V53z M546.5,131h-71v-3H495v-17.5h3V128h48.5V131z M484,164.5h3v50h-3V164.5z M390,323.5h-3v-23h3V323.5z
	 M416.5,351h39v3h-39V351z M327,351h20.5v3h-57v-3H324v-28.5h3V351z M251,325.5h3v44h-3V325.5z M49,325.5h3v44h-3v-25.6H0v-3h49
	V325.5z M18,369.5h3V400h-3V369.5z M102,250h44.5v3H102v29h44.5v3H102v15.5h-3V269H18.5v-3h20.1v-64H19.5v-3h45v3H41.6v64H99v-33.5
	h3V250z M123,351h23.5v3H123v15.5h-3V354H90.5v-3H120v-27.5h3V351z M392,96h-21v-3h21V15.5h3V93h21v3h-21v14.5h-3V96z M498,51.5h-3
	v-36h3V51.5z M495,300.5h3v69h-3V300.5z M565,369.5h3V400h-3V369.5z M568.5,224h18v3h-40v-3h19L565,110.5h3L568.5,224z M565,266.5h3
	v34h-3V266.5z M389,369.5h3V400h-3V369.5z M261,368.5h3V400h-3V368.5z M52,31.5h-3V0h3V31.5z M290.5,82H256V52.5h3V79h31.5V82z
	 M325,37h-18.5v-3H325V15.5h3V34h18.5v3H328v14.5h-3V37z M437,164.5V195h18.5v3h-39v-3H434v-30.5H437z M461.8,238h13.7v3h-13.7
	l-27.4-0.1H416v-3h18.5L461.8,238z M498,231h49.5v3H498v30.5h-3v-50h3V231z M44,300.5v22h-3v-22H44z M78,300.5h3v23h-3V300.5z
	 M120,300.5v23h-3v-23H120z M395,213h20.5v3h-69v-3H392v-68h-21.5v-3h85v3H395V213z M58,369.5h3V400h-3V369.5z M31,110.5v26h32.5v3
	H31v26h-3v-55H31z M600,198.5v3h-12.5v-3H600z"/>
<path id="Secondary_Roads" class="st4" d="M600,19v-7h-9.5V0h-7v12h-33V0h-7v12h-21V0h-7v12h-37V0h-7v12h-52V0h-7v12h-38V0h-7v12
	h-17V0h-7v12h-33V0h-7v12h-153V0h-7v48h-49V0h-7v48h-65V0h-7v48H0v7h15.5v51.5H0v7h15.5V229H0v7h15.5v61H0v7h15.5v16H0v7h87.5v39H0
	v7h87.5v27h7v-27h49v27h7v-27h56v27h7v-27h130v27h7v-27h17v27h7v-27h38v27h7v-27h52v27h7v-27h37v27h7v-27h61v27h7v-27h9.5v-7h-9.5
	v-39h9.5v-7h-9.5v-16h9.5v-7h-9.5V113.5h9.5v-7h-9.5V84h9.5v-7h-9.5V55h9.5v-7h-9.5V19H600z M543.5,19v29h-21V19H543.5z M522.5,320
	v-16h21v16H522.5z M143.5,113.5V229h-76V113.5H143.5z M343.5,211h-33v-19h33V211z M213.5,211v-19h45v19H213.5z M265.5,192h38v19h-38
	V192z M343.5,185h-33v-71.5h33V185z M303.5,185h-38v-71.5h38V185z M258.5,185h-45v-71.5h45V185z M213.5,218h28v79h-28V218z
	 M248.5,218h95v79h-95V218z M350.5,113.5h17V297h-17V113.5z M374.5,113.5h38V297h-38V113.5z M419.5,84h52v22.5h-52V84z M471.5,113.5
	V211h-52v-97.5H471.5z M419.5,218h52v79h-52V218z M478.5,218h37v79h-37V218z M478.5,211v-97.5h37V211H478.5z M478.5,106.5V84h37
	v22.5H478.5z M478.5,77V55h37v22H478.5z M471.5,77h-52V55h52V77z M412.5,106.5h-38V55h38V106.5z M367.5,106.5h-17V55h17V106.5z
	 M343.5,106.5h-33V55h33V106.5z M303.5,106.5h-90V55h90V106.5z M206.5,106.5h-56V55h56V106.5z M206.5,113.5V229h-56V113.5H206.5z
	 M143.5,236v61h-76v-61H143.5z M150.5,236h56v61h-56V236z M206.5,304v16h-56v-16H206.5z M213.5,304h130v16h-130V304z M350.5,304h17
	v16h-17V304z M374.5,304h38v16h-38V304z M419.5,304h52v16h-52V304z M478.5,304h37v16h-37V304z M522.5,297v-79h21v79H522.5z
	 M543.5,211h-21v-97.5h21V211z M522.5,106.5V84h21v22.5H522.5z M522.5,77V55h21v22H522.5z M515.5,19v29h-37V19H515.5z M471.5,19v29
	h-52V19H471.5z M412.5,19v29h-38V19H412.5z M367.5,19v29h-17V19H367.5z M343.5,19v29h-33V19H343.5z M150.5,19h153v29h-153V19z
	 M143.5,55v51.5h-49V55H143.5z M22.5,55h65v51.5h-65V55z M22.5,113.5h38V229h-38V113.5z M22.5,236h38v61h-38V236z M22.5,304h121v16
	h-121V304z M94.5,366v-39h49v39H94.5z M150.5,366v-39h56v39H150.5z M213.5,366v-39h130v39H213.5z M350.5,366v-39h17v39H350.5z
	 M374.5,366v-39h38v39H374.5z M419.5,366v-39h52v39H419.5z M478.5,366v-39h37v39H478.5z M583.5,366h-61v-39h61V366z M583.5,320h-33
	v-16h33V320z M583.5,297h-33V113.5h33V297z M583.5,106.5h-33V84h33V106.5z M583.5,77h-33V19h33V77z"/>
<path id="Main_Roades" class="st5" d="M600,171v-12H461V0h-12v159H296V0h-12v24H181V0h-12v24H0v12h169v123H0v12h169v229h12V271h103
	v129h12V271h153v129h12V271h139v-12H461v-88H600z M181,36h103v123H181V36z M181,259v-88h103v88H181z M449,259H296v-88h153V259z"/>
<path id="Marker" class="st6" d="M252.6,208c0.3-13-10-23.7-23-23.9s-23.7,10-23.9,23c0,0.3,0,0.6,0,1s0,0.7,0,1.1v0.2
	c0,0.1,0,0.2,0,0.4c0,0.1,0,0.3,0,0.4c1.5,19.1,23.4,37.2,23.4,37.2s22-18.2,23.5-37.3c0-0.1,0-0.3,0-0.4c0-0.1,0-0.2,0-0.4V209
	C252.6,208.7,252.6,208.3,252.6,208z M229.2,217.6c-5.3,0-9.6-4.3-9.6-9.6s4.3-9.6,9.6-9.6s9.6,4.3,9.6,9.6l0,0
	C238.8,213.3,234.5,217.6,229.2,217.6L229.2,217.6z"/>
</svg>
